<svg width="48" height="48" viewBox="0 0 48 48" fill="none" xmlns="http://www.w3.org/2000/svg">
<mask id="mask0_91:448" style="mask-type:alpha" maskUnits="userSpaceOnUse" x="0" y="0" width="48" height="48">
<rect width="48" height="48" rx="10" fill="#C4C4C4"/>
</mask>
<g mask="url(#mask0_91:448)">
<path d="M39.2583 22.1141H9.74167C8.77977 22.1141 8 22.9745 8 24.0358V24.2381C8 25.2994 8.77977 26.1598 9.74167 26.1598H39.2583C40.2202 26.1598 41 25.2994 41 24.2381V24.0358C41 22.9745 40.2202 22.1141 39.2583 22.1141Z" fill="white"/>
<path d="M39.2583 32.2283H9.74167C8.77977 32.2283 8 33.0886 8 34.15V34.3522C8 35.4136 8.77977 36.2739 9.74167 36.2739H39.2583C40.2202 36.2739 41 35.4136 41 34.3522V34.15C41 33.0886 40.2202 32.2283 39.2583 32.2283Z" fill="white"/>
<path d="M39.2583 12H9.74167C8.77977 12 8 12.8604 8 13.9217V14.124C8 15.1853 8.77977 16.0457 9.74167 16.0457H39.2583C40.2202 16.0457 41 15.1853 41 14.124V13.9217C41 12.8604 40.2202 12 39.2583 12Z" fill="white"/>
</g>
</svg>
