<svg width="48" height="48" viewBox="0 0 48 48" fill="none" xmlns="http://www.w3.org/2000/svg">
<path fill-rule="evenodd" clip-rule="evenodd" d="M25.4401 3.02254C32.1869 3.42295 38.0138 7.21113 41.0193 13.151C42.6388 16.3514 43.27 19.8158 42.8951 23.4465C42.557 26.7217 41.3447 29.9518 39.2797 33.0799C36.7968 36.8411 33.0196 40.4994 27.9945 44.0098C26.8294 44.8237 25.2701 45.8304 25.0387 45.918C24.7482 46.0281 24.2512 46.0272 23.9578 45.9161C23.5591 45.7652 20.9411 44.0024 19.346 42.8108C15.7532 40.127 12.8873 37.3674 10.734 34.5181C9.07613 32.3243 7.76911 29.8897 6.99319 27.5498C5.68177 23.5954 5.66881 19.4413 6.9558 15.593C9.04181 9.35565 14.3396 4.68858 20.8409 3.3609C22.2139 3.08052 24.0906 2.94246 25.4401 3.02254ZM23.1914 7.79001C21.4246 7.96396 19.5814 8.53284 18.0631 9.37282C15.667 10.6984 13.6786 12.7493 12.5431 15.0662C11.819 16.5437 11.4772 17.6015 11.2514 19.0635C11.112 19.9661 11.0978 22.2137 11.2263 23.0356C11.5029 24.8046 12.1092 26.4448 13.0787 28.046C13.6396 28.9726 14.0209 29.4412 15.0385 30.4549C16.0322 31.4448 16.476 31.8074 17.4216 32.4019C17.887 32.6945 19.3457 33.4452 19.4488 33.4452C19.5241 33.4452 19.552 32.9511 19.5817 31.0939C19.6017 29.848 19.5945 29.2135 19.5577 28.9811C19.4614 28.3723 19.2311 27.9051 18.4672 26.7702C17.7542 25.7105 17.4883 25.2442 17.2981 24.7194L17.1925 24.4281L17.1995 19.5657C17.2074 14.1716 17.1939 14.4109 17.4997 14.2476L17.6691 14.1571L17.7973 14.2517C17.8679 14.3037 17.9541 14.4042 17.9889 14.475C18.082 14.6644 18.1256 15.8663 18.133 18.4471C18.1366 19.6776 18.1535 20.9994 18.1706 21.3846C18.198 22.0027 18.212 22.0925 18.29 22.1494C18.4227 22.2461 18.5612 22.2274 18.6851 22.096L18.7962 21.9782L18.8191 18.3636L18.842 14.749L18.9498 14.5309C19.0699 14.2879 19.2677 14.1545 19.443 14.1984C19.6012 14.2379 19.8146 14.5569 19.8671 14.8322C19.8923 14.9646 19.9247 16.5755 19.9407 18.4928C19.9564 20.3761 19.9806 21.9627 19.9945 22.0185C20.0246 22.1395 20.2712 22.2033 20.4143 22.127C20.487 22.0882 20.5127 22.0157 20.5333 21.7918C20.5477 21.6347 20.5759 19.9755 20.5959 18.1047C20.6285 15.0515 20.6401 14.6887 20.7092 14.5604C20.805 14.3823 21.0435 14.1783 21.1559 14.1783C21.2691 14.1783 21.508 14.3834 21.6007 14.5604C21.6676 14.6879 21.6785 15.0951 21.7022 18.3432L21.7287 21.983L21.8273 22.0813C21.9441 22.1976 22.1195 22.2076 22.2737 22.107L22.3848 22.0344L22.4004 18.3689L22.416 14.7033L22.53 14.5048C22.5927 14.3956 22.702 14.2764 22.7728 14.24C22.8901 14.1795 22.9153 14.1821 23.0557 14.2685C23.1404 14.3207 23.2348 14.4296 23.2655 14.5105C23.3029 14.6092 23.3331 15.2139 23.3574 16.3469C23.4029 18.4717 23.4056 23.5771 23.3616 24.249C23.3311 24.7134 23.3132 24.7863 23.1419 25.1393C22.9275 25.5814 22.5049 26.2266 21.8733 27.0762C20.972 28.2884 20.9485 28.3918 20.9919 30.9569C21.0295 33.1773 21.0711 33.9408 21.157 33.9938C21.2424 34.0464 22.3549 34.2563 22.8675 34.3165C23.5486 34.3966 26.1588 34.3479 26.6772 34.2454C26.904 34.2006 27.1132 34.1454 27.1419 34.1227C27.2185 34.0622 27.2417 33.8394 27.3261 32.3494C27.3714 31.5478 27.4039 30.2541 27.4063 29.1535C27.4102 27.3613 27.4071 27.2925 27.3051 26.9164C27.1521 26.3519 26.7835 25.6383 26.1496 24.6792C25.3543 23.476 25.1376 23.0235 24.8596 21.9863C24.6366 21.1542 24.5906 20.7982 24.5619 19.6798C24.5403 18.8416 24.5504 18.5081 24.6119 18.0267C24.8392 16.2477 25.4444 14.8631 26.4071 13.9192C26.865 13.4703 27.2777 13.2475 27.7946 13.17C28.5688 13.0539 29.2275 13.2884 29.8912 13.9165C30.814 14.7898 31.4565 16.2867 31.6986 18.1275C31.7682 18.6569 31.7682 20.1093 31.6986 20.6386C31.6102 21.3103 31.4716 21.9295 31.2834 22.4928C31.0244 23.2679 30.7438 23.7963 29.8194 25.2499C29.3588 25.9741 29.1063 26.4905 28.9886 26.949C28.9103 27.2542 28.8996 27.4571 28.9001 28.6244C28.9008 30.161 28.9817 33.1091 29.0306 33.3767C29.0597 33.5364 29.078 33.5577 29.1765 33.5465C29.3431 33.5275 30.4603 33.0218 30.9698 32.7347C32.7921 31.7079 34.3923 30.2509 35.5548 28.56C36.8205 26.7189 37.6167 24.5048 37.791 22.3412C37.8706 21.3523 37.8259 19.6503 37.7012 18.9265C37.0964 15.4148 35.1696 12.3239 32.2902 10.2461C30.8837 9.23115 29.4057 8.55064 27.6853 8.12595C27.1214 7.98674 26.1212 7.81873 25.5776 7.77188C25.1348 7.73376 23.6484 7.74504 23.1914 7.79001ZM27.0902 14.8745C26.2558 15.7157 25.8007 16.6543 25.5688 18.0128C25.4594 18.6533 25.4708 19.8485 25.5928 20.5245C25.8228 21.7997 26.3252 22.8141 27.1107 23.59C27.4324 23.9078 27.5853 24.0205 27.8956 24.1684C28.2618 24.3429 28.7848 24.4891 28.8415 24.4327C28.8559 24.4183 28.7884 24.3734 28.6915 24.3331C28.2365 24.1436 27.6644 23.6641 27.2845 23.1536C26.0554 21.502 25.7248 18.6692 26.5017 16.4452C26.7695 15.6787 27.021 15.2305 27.586 14.5132C27.6428 14.4412 27.6512 14.4066 27.6122 14.4066C27.5804 14.4066 27.3455 14.6172 27.0902 14.8745Z" fill="white"/>
</svg>
