<svg width="20" height="23" viewBox="0 0 20 23" fill="none" xmlns="http://www.w3.org/2000/svg">
<path fill-rule="evenodd" clip-rule="evenodd" d="M10.5082 0.0120569C14.1551 0.226227 17.3047 2.25247 18.9294 5.42961C19.8047 7.14143 20.1459 8.9945 19.9433 10.9365C19.7605 12.6883 19.1053 14.4161 17.989 16.0893C16.6469 18.1011 14.6052 20.0578 11.8889 21.9355C11.2591 22.3708 10.4162 22.9093 10.2912 22.9561C10.1341 23.015 9.86549 23.0145 9.7069 22.9551C9.49142 22.8744 8.07627 21.9315 7.21406 21.2942C5.27201 19.8586 3.72287 18.3826 2.55894 16.8585C1.66277 15.6851 0.956274 14.3829 0.53686 13.1313C-0.172016 11.0162 -0.179024 8.79418 0.516649 6.7358C1.64422 3.39953 4.5079 0.903195 8.02213 0.193039C8.7643 0.0430713 9.77868 -0.0307771 10.5082 0.0120569ZM9.29266 2.5621C8.33762 2.65514 7.34127 2.95942 6.52057 3.40872C5.2254 4.11775 4.15058 5.21473 3.53681 6.45401C3.14541 7.24432 2.96064 7.8101 2.83859 8.5921C2.76325 9.0749 2.75557 10.2771 2.82502 10.7167C2.97451 11.6629 3.30229 12.5403 3.8263 13.3967C4.1295 13.8923 4.33564 14.143 4.88566 14.6852C5.42279 15.2146 5.66269 15.4086 6.17382 15.7266C6.42541 15.8831 7.21387 16.2846 7.26962 16.2846C7.31031 16.2846 7.3254 16.0204 7.34147 15.027C7.35227 14.3606 7.34835 14.0212 7.32849 13.8969C7.27645 13.5712 7.15192 13.3213 6.73905 12.7143C6.35361 12.1475 6.20989 11.898 6.10707 11.6174L6.04999 11.4615L6.0538 8.86073C6.05806 5.97551 6.05075 6.10352 6.21605 6.01615L6.30762 5.96777L6.37694 6.01834C6.41508 6.04618 6.46167 6.09993 6.48047 6.13781C6.5308 6.23911 6.55438 6.88198 6.55839 8.26242C6.56032 8.92056 6.56946 9.62761 6.5787 9.83365C6.59351 10.1643 6.60109 10.2123 6.64327 10.2427C6.715 10.2944 6.78982 10.2844 6.85682 10.2141L6.91685 10.1511L6.92924 8.21773L6.94162 6.28434L6.99987 6.16768C7.06479 6.03771 7.17174 5.96638 7.2665 5.98982C7.352 6.01097 7.46736 6.1816 7.49572 6.32885C7.50934 6.39965 7.52685 7.26131 7.5355 8.28684C7.54399 9.2942 7.55707 10.1428 7.56458 10.1727C7.58085 10.2374 7.71417 10.2715 7.7915 10.2307C7.8308 10.21 7.84472 10.1712 7.85584 10.0514C7.86364 9.96738 7.87888 9.0799 7.88968 8.07926C7.90731 6.44615 7.91358 6.2521 7.9509 6.18345C8.00269 6.08821 8.13163 5.97908 8.19239 5.97908C8.25359 5.97908 8.38268 6.0888 8.43283 6.18345C8.46899 6.25168 8.47489 6.46947 8.48767 8.20681L8.50198 10.1537L8.55531 10.2063C8.61841 10.2685 8.71322 10.2739 8.79657 10.22L8.85663 10.1812L8.86508 8.22056L8.8735 6.25991L8.93514 6.15373C8.96905 6.09534 9.02812 6.03158 9.06639 6.01207C9.12979 5.97973 9.14341 5.9811 9.21928 6.02733C9.26507 6.05524 9.31612 6.11349 9.33269 6.15679C9.35292 6.20958 9.36927 6.53301 9.3824 7.13906C9.40699 8.27556 9.40843 11.0063 9.38463 11.3658C9.36818 11.6142 9.35847 11.6531 9.26589 11.842C9.14998 12.0784 8.92155 12.4235 8.58015 12.8779C8.09297 13.5263 8.08029 13.5817 8.10374 14.9537C8.12408 16.1413 8.14652 16.5497 8.19298 16.5781C8.23915 16.6062 8.84051 16.7185 9.11756 16.7507C9.48575 16.7935 10.8967 16.7675 11.1769 16.7127C11.2995 16.6887 11.4125 16.6592 11.4281 16.647C11.4695 16.6147 11.482 16.4955 11.5276 15.6985C11.5521 15.2697 11.5697 14.5778 11.571 13.9891C11.5731 13.0305 11.5714 12.9936 11.5163 12.7925C11.4336 12.4905 11.2343 12.1089 10.8917 11.5959C10.4618 10.9523 10.3446 10.7103 10.1944 10.1554C10.0738 9.71037 10.049 9.51999 10.0334 8.92178C10.0218 8.47339 10.0272 8.29504 10.0605 8.03753C10.1834 7.086 10.5105 6.34536 11.0309 5.84051C11.2784 5.60041 11.5014 5.48121 11.7809 5.43974C12.1994 5.37767 12.5554 5.50312 12.9141 5.83905C13.413 6.30617 13.7602 7.10685 13.8911 8.09147C13.9288 8.37461 13.9288 9.15148 13.8911 9.43461C13.8434 9.79387 13.7684 10.1251 13.6667 10.4264C13.5267 10.841 13.375 11.1236 12.8754 11.9011C12.6264 12.2885 12.4899 12.5647 12.4263 12.81C12.3839 12.9732 12.3782 13.0817 12.3784 13.706C12.3788 14.528 12.4225 16.1049 12.449 16.248C12.4647 16.3334 12.4746 16.3448 12.5278 16.3388C12.6179 16.3287 13.2218 16.0582 13.4972 15.9046C14.4822 15.3554 15.3472 14.5761 15.9756 13.6716C16.6597 12.6869 17.0901 11.5026 17.1843 10.3453C17.2273 9.81636 17.2032 8.90595 17.1358 8.51884C16.8088 6.64049 15.7673 4.9872 14.2109 3.87581C13.4507 3.33294 12.6517 2.96895 11.7218 2.74179C11.417 2.66733 10.8763 2.57746 10.5825 2.5524C10.3431 2.53201 9.53967 2.53804 9.29266 2.5621ZM11.4001 6.35149C10.9491 6.80145 10.7031 7.30349 10.5777 8.03013C10.5186 8.3727 10.5248 9.01199 10.5907 9.37356C10.715 10.0557 10.9866 10.5983 11.4112 11.0133C11.5851 11.1832 11.6677 11.2435 11.8355 11.3226C12.0334 11.416 12.3161 11.4942 12.3467 11.464C12.3546 11.4563 12.3181 11.4323 12.2657 11.4107C12.0197 11.3094 11.7105 11.0529 11.5052 10.7799C10.8407 9.89644 10.6621 8.3812 11.082 7.19164C11.2267 6.78164 11.3627 6.5419 11.6681 6.15823C11.6988 6.11969 11.7034 6.10118 11.6823 6.10118C11.6651 6.10118 11.5381 6.21383 11.4001 6.35149Z" fill="#C6302C"/>
</svg>
