<svg width="228" height="202" viewBox="0 0 228 202" fill="none" xmlns="http://www.w3.org/2000/svg">
<path fill-rule="evenodd" clip-rule="evenodd" d="M104.411 1.82727C102.211 2.84827 98.9728 5.20027 97.2158 7.05527C94.2378 10.1983 7.4858 160.417 2.2898 171.427C-0.359197 177.041 -0.665199 181.268 1.1408 187.311C2.7198 192.597 9.5078 199.444 14.5598 200.846C17.1698 201.571 49.3578 201.918 114.465 201.921L210.518 201.927L215.83 199.28C221.704 196.353 226.383 190.261 227.555 184.011C229.103 175.761 227.854 173.296 180.344 90.8183C155.191 47.1533 133.518 9.98627 132.18 8.22627C126.538 0.799269 113.234 -2.26673 104.411 1.82727ZM118.103 12.1033C120.261 12.7493 123.688 14.9463 125.719 16.9843C128.132 19.4063 143.265 45.5653 169.411 92.5133C191.411 132.016 210.225 166.356 211.22 168.824C213.373 174.166 213.627 181.78 211.756 184.872C211.016 186.094 208.836 187.902 206.911 188.891C203.655 190.564 197.347 190.741 116.411 191.42C52.9858 191.953 28.2838 191.846 25.2518 191.025C22.6628 190.324 19.9268 188.571 18.0018 186.378C15.3678 183.378 14.9188 182.087 14.9648 177.642C14.9948 174.774 15.7828 170.546 16.7148 168.246C17.6478 165.947 36.4108 131.772 58.4108 92.3033C99.5018 18.5813 102.399 14.0103 109.285 12.0143C113.566 10.7723 113.666 10.7733 118.103 12.1033ZM105.49 21.3013C102.81 24.1743 87.5948 50.5403 61.1288 98.1703C16.7668 178.009 16.8088 177.916 22.2568 183.364L24.8618 185.969L114.282 185.698C200.607 185.436 203.775 185.361 205.806 183.522C208.281 181.282 208.539 176.939 206.53 171.303C205.77 169.171 187.096 135.027 165.032 95.4273C137.878 46.6923 123.788 22.3773 121.428 20.1773C118.645 17.5833 117.095 16.9273 113.754 16.9273C110.099 16.9273 109.051 17.4823 105.49 21.3013ZM119.856 42.1943C123.659 44.1183 125.959 49.0683 126.555 56.6093C127.144 64.0523 122.588 118.017 121.023 122.132C119.549 126.01 117.058 127.927 113.495 127.927C109.693 127.927 107.293 125.694 105.846 120.815C104.44 116.069 100.52 56.8253 101.327 52.5203C102.065 48.5903 106.132 43.1893 109.329 41.8963C112.399 40.6543 117.075 40.7863 119.856 42.1943ZM118.193 143.298C123.1 145.389 126.078 149.213 126.615 154.115C127.874 165.602 113.112 172.282 104.812 163.982C96.8428 156.012 101.991 143.306 113.693 142.063C114.398 141.988 116.423 142.544 118.193 143.298Z" fill="#C6302C"/>
</svg>
